<svg width="184" height="286" viewBox="0 0 184 286" fill="none" xmlns="http://www.w3.org/2000/svg">
<g opacity="0.2">
<path d="M143.559 53.625C153.055 53.3457 160.596 45.8047 160.875 36.3086C161.154 25.9746 152.775 17.5957 142.441 17.875C132.945 18.1543 125.404 25.6953 125.125 35.1914C124.846 45.5254 133.225 53.9043 143.559 53.625ZM273.152 160.875H268.125L232.654 92.168C237.682 91.6094 242.709 89.6543 247.178 87.6992C253.881 84.6269 255.277 75.6894 250.25 70.3828L249.971 70.1035C246.898 67.0312 242.15 65.9141 237.961 67.8691C234.051 69.5449 228.465 71.5 223.158 71.5C207.518 71.5 200.535 53.625 143 53.625C85.4648 53.625 78.4824 71.5 62.8417 71.5C57.2558 71.5 51.9492 69.8242 48.039 67.8691C43.8495 66.1933 39.1015 67.0312 36.0292 70.1035L35.7499 70.3828C30.7226 75.6894 32.1191 84.3476 38.8222 87.6992C43.291 89.9336 48.3183 91.6094 53.3456 92.168L17.8749 160.875H12.8476C10.6132 160.875 8.93744 162.83 9.21673 165.064C12.289 182.939 34.912 196.625 62.5624 196.625C90.2128 196.625 112.836 182.939 115.908 165.064C116.187 162.83 114.512 160.875 112.277 160.875H107.25L71.7792 92.4473C94.9609 90.4922 107.25 78.7617 125.125 78.7617V214.5C115.35 214.5 107.25 222.6 107.25 232.375H87.4199C79.5995 232.375 71.4999 240.475 71.4999 250.25H214.5C214.5 240.475 206.4 232.375 194.67 232.375H178.75C178.75 222.6 170.65 214.5 160.875 214.5V78.7617C178.75 78.7617 191.039 90.4922 214.221 92.4473L178.75 160.875H173.723C171.488 160.875 169.812 162.83 170.092 165.064C173.164 182.939 195.787 196.625 223.437 196.625C251.088 196.625 273.711 182.939 276.783 165.064C277.062 162.83 275.387 160.875 273.152 160.875ZM89.3749 160.875H35.7499L62.5624 110.602L89.3749 160.875ZM196.625 160.875L223.437 110.602L250.25 160.875H196.625Z" fill="black" fill-opacity="0.5"/>
</g>
</svg>
