<svg width="339" height="405" viewBox="0 0 339 405" fill="none" xmlns="http://www.w3.org/2000/svg">
<path d="M66.8654 105.131C60.6891 111.308 50.6822 111.324 44.506 105.131L22.501 83.1263C16.3332 76.9501 16.35 66.9432 22.501 60.7585L78.045 5.23131C84.2044 -0.944941 94.2113 -0.944941 100.388 5.23131L122.401 27.2363C128.56 33.4126 128.56 43.4194 122.401 49.5788L66.8654 105.131Z" fill="#262627"/>
<path d="M198.372 239.102C192.204 245.253 182.197 245.253 176.03 239.102L154.016 217.08C147.84 210.921 147.84 200.905 154.016 194.729L209.56 139.185C215.728 133.026 225.735 133.009 231.911 139.185L253.916 161.19C260.093 167.366 260.076 177.373 253.916 183.549L198.372 239.102Z" fill="#262627"/>
<path d="M-53.7571 244.384L-31.423 222.024C-25.2299 215.865 -15.2484 215.865 -9.08055 222.024L0.715408 231.812L95.2576 137.253L74.7798 116.767L131.589 59.9738L152.076 80.46L178.164 106.532L198.195 126.563L141.394 183.372L121.338 163.35L26.8126 257.892L35.6551 266.743C41.8313 272.894 41.8482 282.909 35.6551 289.086L13.321 311.428C7.12791 317.621 -2.87054 317.621 -9.03835 311.428L-53.7487 266.735C-59.9333 260.55 -59.9333 250.56 -53.7571 244.384Z" fill="#262627"/>
<path d="M111.373 312.297C111.373 302.181 119.574 293.963 129.708 293.963H272.875C283 293.963 291.21 302.181 291.21 312.297V342.056H331.398V404.401H73.5647V342.056H111.373V312.297Z" fill="#262627"/>
</svg>
