<svg width="22" height="26" viewBox="0 0 22 26" fill="none" xmlns="http://www.w3.org/2000/svg">
<g filter="url(#filter0_d_37_60)">
<path d="M15.6865 10.0572C15.097 11.2517 14.299 12.4426 13.4815 13.5113C12.6665 14.5766 11.8487 15.4989 11.2336 16.1555C11.1519 16.2428 11.0739 16.3252 11 16.4026C10.9261 16.3252 10.8481 16.2428 10.7664 16.1555C10.1513 15.4989 9.33352 14.5766 8.51853 13.5113C7.70098 12.4426 6.90303 11.2517 6.31351 10.0572C5.7179 8.85046 5.375 7.71965 5.375 6.75C5.375 3.6434 7.8934 1.125 11 1.125C14.1066 1.125 16.625 3.6434 16.625 6.75C16.625 7.71965 16.2821 8.85046 15.6865 10.0572ZM11 18C11 18 17.75 11.6029 17.75 6.75C17.75 3.02208 14.7279 0 11 0C7.27208 0 4.25 3.02208 4.25 6.75C4.25 11.6029 11 18 11 18Z" fill="#ECD087"/>
<path d="M11 9C9.75736 9 8.75 7.99264 8.75 6.75C8.75 5.50736 9.75736 4.5 11 4.5C12.2426 4.5 13.25 5.50736 13.25 6.75C13.25 7.99264 12.2426 9 11 9ZM11 10.125C12.864 10.125 14.375 8.61396 14.375 6.75C14.375 4.88604 12.864 3.375 11 3.375C9.13604 3.375 7.625 4.88604 7.625 6.75C7.625 8.61396 9.13604 10.125 11 10.125Z" fill="#ECD087"/>
</g>
<defs>
<filter id="filter0_d_37_60" x="-2" y="0" width="26" height="26" filterUnits="userSpaceOnUse" color-interpolation-filters="sRGB">
<feFlood flood-opacity="0" result="BackgroundImageFix"/>
<feColorMatrix in="SourceAlpha" type="matrix" values="0 0 0 0 0 0 0 0 0 0 0 0 0 0 0 0 0 0 127 0" result="hardAlpha"/>
<feOffset dy="4"/>
<feGaussianBlur stdDeviation="2"/>
<feComposite in2="hardAlpha" operator="out"/>
<feColorMatrix type="matrix" values="0 0 0 0 0 0 0 0 0 0 0 0 0 0 0 0 0 0 0.25 0"/>
<feBlend mode="normal" in2="BackgroundImageFix" result="effect1_dropShadow_37_60"/>
<feBlend mode="normal" in="SourceGraphic" in2="effect1_dropShadow_37_60" result="shape"/>
</filter>
</defs>
</svg>
