<svg width="58" height="57" viewBox="0 0 58 57" fill="none" xmlns="http://www.w3.org/2000/svg">
<g clip-path="url(#clip0_255_109)">
<path d="M1.79984 28.5024V28.5C1.79984 13.6103 13.9073 1.5 28.7927 1.5H28.807C43.6922 1.5 55.7998 13.6138 55.7998 28.5C55.7998 43.3862 43.6922 55.5 28.807 55.5L28.8038 55.5C23.5234 55.5113 18.3578 53.9596 13.9577 51.0404L13.3576 50.6423L12.6717 50.8616L4.53766 53.4618L7.14764 45.6816L7.39401 44.9472L6.93781 44.3212C3.59003 39.727 1.7906 34.187 1.79984 28.5024Z" fill="#4CAF50" stroke="white" stroke-width="3"/>
<path d="M45.3903 40.2456C44.7027 42.1871 41.9738 43.7974 39.7971 44.2676C38.308 44.5847 36.3629 44.8376 29.815 42.123C21.4396 38.6531 16.046 30.1423 15.6256 29.5901C15.223 29.0379 12.2412 25.0836 12.2412 20.9938C12.2412 16.9041 14.3181 14.9126 15.1553 14.0576C15.8429 13.3558 16.9793 13.0352 18.0695 13.0352C18.4221 13.0352 18.7392 13.053 19.0242 13.0672C19.8614 13.1029 20.2818 13.1528 20.834 14.4744C21.5215 16.131 23.1959 20.2208 23.3954 20.6411C23.5985 21.0615 23.8015 21.6315 23.5165 22.1837C23.2493 22.7537 23.0142 23.0066 22.5938 23.4911C22.1735 23.9756 21.7745 24.3461 21.3541 24.8662C20.9693 25.3187 20.5347 25.8032 21.0192 26.6404C21.5037 27.4598 23.1781 30.1922 25.6433 32.3867C28.8246 35.2189 31.4039 36.1238 32.3266 36.5085C33.0141 36.7935 33.8335 36.7258 34.3358 36.1914C34.9735 35.5039 35.7608 34.3639 36.5624 33.2417C37.1324 32.4366 37.852 32.3368 38.6073 32.6218C39.3768 32.889 43.4487 34.9018 44.2859 35.3186C45.1231 35.739 45.6753 35.9385 45.8783 36.2912C46.0778 36.6439 46.0778 38.3004 45.3903 40.2456V40.2456Z" fill="#FAFAFA"/>
</g>
<defs>
<clipPath id="clip0_255_109">
<rect width="57" height="57" fill="white" transform="translate(0.299805)"/>
</clipPath>
</defs>
</svg>
